<svg xmlns="http://www.w3.org/2000/svg" viewBox="0 0 512 512"><path d="M445.135 159.63 287.511 19.735l-.001-.001c-17.966-15.942-45.056-15.944-63.021 0L66.864 159.632c-10.44 9.267-15.958 21.543-15.958 35.503v261.62c0 26.175 21.295 47.47 47.47 47.47h315.248c26.176 0 47.471-21.295 47.471-47.47v-261.62c0-13.96-5.52-26.238-15.96-35.503zm-12.04 297.124c0 10.737-8.736 19.47-19.472 19.47H98.376c-10.737 0-19.47-8.733-19.47-19.47v-261.62c0-5.89 2.141-10.653 6.546-14.563L243.076 40.674C246.82 37.35 251.41 35.69 256 35.69s9.18 1.662 12.925 4.985L426.55 180.573c4.405 3.908 6.545 8.672 6.545 14.562zm-165.821-318.01a14 14 0 0 0-22.548 0c-6.558 8.908-14.983 19.383-23.904 30.472-35.659 44.327-80.038 99.495-80.038 144.271 0 63.53 51.685 115.215 115.216 115.215 63.53 0 115.214-51.685 115.214-115.215 0-44.776-44.379-99.945-80.037-144.272-8.92-11.09-17.344-21.563-23.903-30.47zM256 400.703c-48.09 0-87.216-39.125-87.216-87.215 0-34.912 42.687-87.977 73.854-126.722C247.276 181 251.781 175.4 256 170.05c4.218 5.348 8.724 10.95 13.36 16.714 31.168 38.745 73.854 91.81 73.854 126.723 0 48.09-39.123 87.215-87.214 87.215zm14-34.977c0 7.732-6.269 14-14 14-28.146 0-53.28-17.856-62.546-44.432-2.546-7.302 1.309-15.284 8.61-17.829 7.304-2.546 15.284 1.31 17.828 8.611 5.35 15.342 19.86 25.65 36.108 25.65 7.731 0 14 6.269 14 14z"/></svg>
