<svg xmlns="http://www.w3.org/2000/svg" viewBox="0 0 48 48"><path d="M24.13 0c.752 0 1.36.608 1.36 1.36 0 6.091 4.909 11.978 8.152 15.873.873 1.046 1.625 1.95 2.196 2.74.21.29.501.721.802 1.179l.226.345a120.7 120.7 0 0 1 1.137 1.779c1.493 2.366 2.25 5.258 2.25 8.594C40.255 40.762 33.021 48 24.13 48 15.234 48 8 40.762 8 31.87c0-3.271.724-6.2 2.092-8.465.362-.596 1.79-2.712 2.459-3.61.555-.748 1.255-1.589 2.068-2.562 3.247-3.895 8.155-9.778 8.155-15.865A1.354 1.354 0 0 1 24.13 0Zm0 7.806c-1.802 4.425-5.033 8.296-7.423 11.165-.785.941-1.46 1.754-1.972 2.438-.62.837-1.987 2.857-2.313 3.396-1.115 1.846-1.702 4.285-1.702 7.065 0 7.395 6.015 13.41 13.41 13.41 7.391 0 13.406-6.015 13.406-13.41 0-2.812-.615-5.219-1.83-7.142-.467-.743-1.434-2.253-1.96-3.003l-.112-.16c-.515-.711-1.24-1.584-2.08-2.59-2.39-2.869-5.621-6.744-7.424-11.17Zm4 11.12c.382.548.8 1.047 1.166 1.49.266.321.5.595.68.848.063.088.653.936 1.295 1.861l.446.645c.641.925 1.224 1.77 1.277 1.855a.88.88 0 0 1-1.485.946c-.137-.205-2.78-4.027-2.961-4.277a14.665 14.665 0 0 0-.604-.748 23.21 23.21 0 0 1-1.259-1.61.883.883 0 0 1 .217-1.227.883.883 0 0 1 1.227.217Z" fill-rule="evenodd"/></svg>
