<svg xmlns="http://www.w3.org/2000/svg" viewBox="0 0 24 24"><path d="M17.5 20h-13C2.019 20 0 17.981 0 15.5v-7C0 6.019 2.019 4 4.5 4h13c2.312 0 4.223 1.753 4.473 4h.527c.827 0 1.5.673 1.5 1.5v5c0 .827-.673 1.5-1.5 1.5h-.527c-.25 2.247-2.16 4-4.473 4ZM4.5 5C2.57 5 1 6.57 1 8.5v7C1 17.43 2.57 19 4.5 19h13c1.93 0 3.5-1.57 3.5-3.5 0-.276.224-.5.5-.5h1c.275 0 .5-.224.5-.5v-5c0-.276-.225-.5-.5-.5h-1c-.276 0-.5-.224-.5-.5C21 6.57 19.43 5 17.5 5h-13Zm9 12h-9c-.827 0-1.5-.673-1.5-1.5v-7C3 7.673 3.673 7 4.5 7h9c.827 0 1.5.673 1.5 1.5v7c0 .827-.673 1.5-1.5 1.5Zm-9-9c-.275 0-.5.224-.5.5v7c0 .276.225.5.5.5h9c.275 0 .5-.224.5-.5v-7c0-.276-.225-.5-.5-.5h-9Z"/></svg>
