<svg xmlns="http://www.w3.org/2000/svg" viewBox="0 0 61 56"><path d="M42.4126 13.2447C33.0047 12.714 18.0378 9.032 10 15 10.4 13.4806 13.644-.5027 30.4094.1573 44.9606.719 53.9843 3.6875 62 0c-1.367 9.5488-9.5654 13.8092-19.5874 13.2447M25.974 30.0897C17.6917 28.6502 9.4124 28.3485 5 33c.7776-8.7436 5.1237-17.6789 20.103-16.6197C34.7687 17.0654 44.8624 20.466 53 16c-2.6161 13.1814-10.7326 16.9246-27.026 14.0897m-8.3796 16.8106a10.2083 10.2083 0 0 1-.5215 3.0826c-1.4495 4.1603-5.578 6.6408-9.7877 5.8808C3.0756 55.1036.0026 51.3227 0 46.9003a9.5925 9.5925 0 0 1 .6904-3.5445c3.1143-7.872 11.399-10.883 22.3096-8.6271-3.9193 1.6568-5.2367 5.5663-5.3995 12.1684"/></svg>
