<svg xmlns="http://www.w3.org/2000/svg" viewBox="0 0 224 56">
    <g fill="none">
        <path fill="#D5D5D5" d="M80.4727 47h-5.0924V20.3232H72v-4.9444h3.2316v-.95c0-3.2292.8118-5.6652 2.4353-7.3079C79.2827 5.4804 83.2697 4.6407 87 5.1464v4.779h-2.5141c-1.5166 0-2.6016.3826-3.255 1.1478-.6532.7651-.9809 2.0469-.9828 3.8452v.4604h4.6665v4.9444h-4.442V47ZM93 5h5v42h-5zm35 41.2899h-5.1393V42.796c-.96 1.3228-2.1885 2.4045-3.5963 3.1665-1.3878.7053-2.9133 1.0601-4.455 1.0363-3.7562 0-6.663-1.2234-8.7203-3.6702-2.0574-2.4469-3.087-5.886-3.0891-10.3177V15h5.3654v16.3908c0 3.3751.5694 5.9042 1.708 7.5875 1.1387 1.6832 2.8437 2.528 5.115 2.5345 1.3234.023 2.6275-.3354 3.7704-1.0363 1.1225-.7127 2.032-1.742 2.6247-2.9708a9.5779 9.5779 0 0 0 .8525-2.8457 38.161 38.161 0 0 0 .2597-5.3192V15H128v31.2899Zm24.8092-15.1779c0-3.8399-.5249-6.624-1.5746-8.3524-1.0496-1.7284-2.7291-2.598-5.0384-2.6087-2.3702 0-4.12.8728-5.2494 2.6184-1.1295 1.7456-1.6942 4.4512-1.6942 8.1167v16.1108H134V15.508h4.9156v3.6936c.9084-1.3053 2.0925-2.3836 3.464-3.1544 1.3642-.7123 2.8778-1.0714 4.4086-1.046 2.2327 0 4.0937.4423 5.5675 1.3205 1.4737.8781 2.6956 2.2438 3.6403 4.1132.8402-1.7138 2.1546-3.1355 3.7788-4.0874 1.5745-.8976 3.487-1.3463 5.7375-1.3463 3.4703 0 6.2498 1.1601 8.3387 3.4804 2.0888 2.3203 3.1385 5.4133 3.149 9.279v19.236h-5.5706V28.6519c0-2.6905-.5753-4.7783-1.7257-6.2635-1.1431-1.4948-2.7523-2.2374-4.7991-2.2374-2.3933 0-4.119.791-5.1581 2.373-1.0392 1.582-1.5745 4.2586-1.5745 8.0102V47h-5.3534l-.0094-15.888Zm34.8878 1.9496c.3796 2.3934 1.5854 4.5746 3.4044 6.1585 3.1952 2.69 7.706 3.1092 11.3347 1.0534 1.4768-.8747 2.689-2.1392 3.506-3.6572h6.088c-1.3803 3.3558-3.3141 5.9254-5.8014 7.709-2.535 1.7946-5.57 2.7304-8.6666 2.6721a15.3091 15.3091 0 0 1-6.0971-1.187 15.113 15.113 0 0 1-4.9972-3.5546 16.3526 16.3526 0 0 1-3.2812-5.189 16.0458 16.0458 0 0 1-1.1862-6.0466 16.3957 16.3957 0 0 1 1.0814-5.9782 16.0426 16.0426 0 0 1 3.1857-5.0679c2.8285-3.2347 6.9234-5.0526 11.199-4.9715a15.142 15.142 0 0 1 7.3635 1.8643c2.2632 1.2416 4.1897 3.0245 5.6103 5.1922a15.7925 15.7925 0 0 1 1.941 4.5302 22.924 22.924 0 0 1 .6161 5.6334v.8545l-25.3004-.0156Zm19.3635-4.9c-.6716-2.5003-1.8372-4.433-3.4968-5.798-1.6745-1.381-3.7837-2.1117-5.9461-2.0601-2.2343-.0442-4.4136.6998-6.1619 2.1036-1.7795 1.4783-3.0384 3.4966-3.5892 5.7545h19.194ZM42.4126 13.2447C33.0047 12.714 18.0378 9.032 10 15 10.4 13.4806 13.644-.5027 30.4094.1573 44.9606.719 53.9843 3.6875 62 0c-1.367 9.5488-9.5654 13.8092-19.5874 13.2447M25.974 30.0897C17.6917 28.6502 9.4124 28.3485 5 33c.7776-8.7436 5.1237-17.6789 20.103-16.6197C34.7687 17.0654 44.8624 20.466 53 16c-2.6161 13.1814-10.7326 16.9246-27.026 14.0897"/>
        <path fill="#5FD0DF" d="M17.5944 46.9003a10.2083 10.2083 0 0 1-.5215 3.0826c-1.4495 4.1603-5.578 6.6408-9.7877 5.8808C3.0756 55.1036.0026 51.3227 0 46.9003a9.5925 9.5925 0 0 1 .6904-3.5445c3.1143-7.872 11.399-10.883 22.3096-8.6271-3.9193 1.6568-5.2367 5.5663-5.3995 12.1684"/>
        <path fill="#D5D5D5" d="M209 6v.8814h2.1677V12h1.2711V6.8814h2.1862V6H209Zm13.2414 0-1.9926 4.6544L218.3308 6H216.5v5.9915h1.1632V8.4161l-.0597-1.0705h.0822L219.6509 12h1.0138l2.075-4.6312h.0746l-.0597 1.1404V12H224V6h-1.7586Z"/>
    </g>
</svg>
